<?xml version="1.0" encoding="utf-8"?>
<!-- Generator: Adobe Illustrator 16.0.0, SVG Export Plug-In . SVG Version: 6.00 Build 0)  -->
<!DOCTYPE svg PUBLIC "-//W3C//DTD SVG 1.1//EN" "http://www.w3.org/Graphics/SVG/1.1/DTD/svg11.dtd">
<svg version="1.1" id="Layer_1" focusable="false" xmlns="http://www.w3.org/2000/svg" xmlns:xlink="http://www.w3.org/1999/xlink"
	 x="0px" y="0px" width="612px" height="792px" viewBox="0 0 612 792" enable-background="new 0 0 612 792" xml:space="preserve">
<path fill="#FFFFFF" d="M554.625,90h-382.5c-31.676,0-57.375,25.699-57.375,57.375v57.375H57.375C25.699,204.75,0,230.449,0,262.125
	v382.5C0,676.301,25.699,702,57.375,702h382.5c31.676,0,57.375-25.699,57.375-57.375V587.25h57.375
	c31.676,0,57.375-25.699,57.375-57.375v-382.5C612,115.699,586.301,90,554.625,90z M439.875,644.625h-382.5V396h382.5V644.625z
	 M554.625,529.875H497.25v-267.75c0-31.676-25.699-57.375-57.375-57.375h-267.75v-57.375h382.5V529.875z"/>
</svg>
